<svg width="32" height="32" viewBox="0 0 32 32" fill="none" xmlns="http://www.w3.org/2000/svg">
<g clip-path="url(#clip0)">
<path d="M17.2884 14.2822C19.4685 12.1551 21.9999 10.5075 24.8129 9.38118C27.4753 8.31621 30.2771 7.767 33.1486 7.7447V3.60471C27.2606 3.68277 21.4646 5.66495 16.7615 9.22506L16.3991 9.49827L15.9781 9.32542C15.5376 9.14421 13.9569 8.42773 12.0946 6.847C9.93681 5.01259 8.18882 2.7126 6.88688 0L4.16871 2.91053C6.63876 8.41936 11.5008 12.6346 17.2884 14.2822Z" fill="white"/>
<path d="M16.6193 16.7579C10.3745 14.9987 5.2058 10.7277 2.28411 4.92895L-1 8.45003C1.99696 13.7107 6.70288 17.8925 12.2953 20.2594L12.3009 20.2622L12.7386 20.449L12.7665 20.6609L12.8027 20.9648C12.9254 22.0046 13.299 27.2319 9.5493 33H13.8872C15.4122 30.6638 16.4632 27.9763 16.9371 25.2051C17.4167 22.3977 17.3051 19.4872 16.6193 16.7579Z" fill="white"/>
<path d="M19.1061 16.0972C19.8783 19.1304 20.0261 22.2277 19.5494 25.3055C19.1256 28.0209 18.2335 30.6024 16.8925 33H22.0557C22.9868 30.831 23.6392 28.545 23.996 26.1948C24.3808 23.669 24.417 21.1125 24.102 18.6034L24.0462 18.149L24.4086 17.873C25.0025 17.4214 28.1054 15.2301 33.1542 14.7088V10.3235C27.913 10.3904 22.8474 12.4673 19.1061 16.0972Z" fill="white"/>
</g>
<defs>
<clipPath id="clip0">
<rect width="32" height="32" fill="white"/>
</clipPath>
</defs>
</svg>
