<svg width="32" height="32" viewBox="0 0 32 32" fill="none" xmlns="http://www.w3.org/2000/svg">
<path d="M1.00263 1.00565C1.00421 1.62262 1.00736 2.0597 1.01105 2.13544C1.02525 2.44103 1.0284 2.50046 1.0384 2.66141C1.18199 5.0046 1.75161 7.36516 2.68731 9.49218L2.75253 9.6405V9.74622L3.04234 10.289C3.41315 10.9838 3.43156 11.0175 3.53517 11.2032C4.89954 13.6416 6.79356 15.8054 9.0384 17.4895C9.0952 17.5322 9.14306 17.5716 9.14464 17.5763C9.14622 17.5816 9.16621 17.6352 9.18935 17.6963C9.48231 18.471 9.67745 19.3247 9.75582 20.1788C9.79895 20.6527 9.80631 21.1882 9.77686 21.6621C9.70533 22.7892 9.44497 23.8722 8.99737 24.9073C8.919 25.0882 8.86693 25.1982 8.76437 25.4017C8.64602 25.6363 8.63287 25.6605 8.27153 26.2927C8.10533 26.5836 7.97068 26.8239 7.97225 26.8266C7.97331 26.8297 8.84957 27.3315 9.91939 27.9416C11.2348 28.6911 11.8671 29.0488 11.8713 29.0462C11.8786 29.0409 12.4367 28.061 12.5435 27.8659C13.5412 26.0387 14.125 23.9989 14.2476 21.9145C14.2634 21.6416 14.2665 21.54 14.2697 21.2018C14.2765 20.394 14.226 19.6855 14.1051 18.8981C13.881 17.4417 13.4145 15.9821 12.7612 14.6956L12.6928 14.5615L12.4793 14.4195C12.0811 14.1554 11.5415 13.7615 11.3048 13.5621C11.2801 13.5416 11.2138 13.488 11.1575 13.4433C11.1012 13.3986 11.0145 13.3265 10.9655 13.2828C10.9161 13.2397 10.843 13.1761 10.8025 13.1414C10.7131 13.0651 10.6042 12.9683 10.5369 12.9047C10.5095 12.8784 10.4469 12.8205 10.3975 12.7758C10.3486 12.7311 10.1661 12.5523 9.9925 12.3782C9.7474 12.1331 9.63853 12.0205 9.50966 11.8759C9.3282 11.6734 8.72387 10.9449 8.58448 10.7613C8.48192 10.6256 7.93596 9.83669 7.8334 9.67521C7.75398 9.55056 7.53517 9.18817 7.49941 9.12295C7.48836 9.10243 7.44418 9.02459 7.4021 8.94938C7.31532 8.79632 7.2622 8.69691 7.15122 8.48126C6.16134 6.55727 5.57436 4.42235 5.44076 2.25641C5.41394 1.82722 5.40868 1.58264 5.40868 0.73741V0.0473373H5.35503C5.32505 0.0473373 4.33991 0.0368179 3.16542 0.0236686C1.99093 0.0105194 1.02314 0 1.01525 0H1L1.00263 1.00565ZM4.07272 2.34109C4.41565 2.34477 4.69704 2.34793 4.69809 2.34898C4.69915 2.34951 4.7044 2.41052 4.70966 2.48363C4.92899 5.44642 5.92465 8.26562 7.60355 10.6798C8.39934 11.8238 9.34872 12.8747 10.4133 13.7915C10.9156 14.2238 11.5194 14.6814 12.0475 15.0296L12.1195 15.0769L12.1879 15.2163C12.5151 15.8838 12.8012 16.6348 13.0116 17.378C13.4408 18.8939 13.6033 20.4192 13.5007 21.9698C13.4082 23.3652 13.0915 24.7595 12.5719 26.0602C12.4888 26.2685 12.3315 26.6351 12.3204 26.6472C12.3173 26.6504 11.0876 25.955 11.0718 25.9408C11.0697 25.9387 11.0965 25.8698 11.1318 25.7878C11.8802 24.0405 12.2021 22.1512 12.0753 20.2498C11.9928 19.0138 11.7245 17.8235 11.2696 16.6759C11.2364 16.5922 11.1654 16.4218 11.1118 16.2972L11.0145 16.071L10.854 15.9553C10.4769 15.6839 10.2613 15.5219 10.0004 15.3136C8.23419 13.9035 6.73307 12.151 5.62275 10.2028C5.43024 9.86509 5.06154 9.17449 5.06154 9.15187C5.06154 9.14241 5.03577 9.08139 5.00053 9.00565C4.04168 6.96489 3.48153 4.77002 3.33899 2.50099C3.33478 2.43156 3.3311 2.36476 3.3311 2.35214V2.32952L3.39053 2.33215C3.42262 2.33373 3.72978 2.33794 4.07272 2.34109Z" fill="white"/>
<path d="M6.96713 0.868902C6.96976 1.61473 6.97186 1.74201 6.98659 2.02761C7.10283 4.25878 7.76239 6.48573 8.86588 8.37607C9.43918 9.35805 10.0635 10.1959 10.8335 11.0164C10.9503 11.1406 11.3069 11.4972 11.4337 11.616C11.7755 11.9369 12.1406 12.2477 12.5093 12.5318C12.6849 12.6675 12.9337 12.8494 12.9432 12.8494C12.9458 12.8494 12.9816 12.81 13.0221 12.7616C13.3303 12.3934 13.5964 12.1036 13.9709 11.7286C14.2302 11.4693 14.3544 11.351 14.5726 11.1548C16.7302 9.21184 19.3753 7.91322 22.2344 7.39303C24.2005 7.03537 26.2402 7.05378 28.1805 7.44668C28.2647 7.46351 28.6118 7.53872 28.9527 7.61341C29.3966 7.71124 29.5733 7.74806 29.5759 7.74333C29.5822 7.73333 30.53 3.54451 30.5269 3.54135C30.5227 3.53715 29.3161 3.26469 29.101 3.21946C27.2043 2.8192 25.232 2.69717 23.2943 2.85917C20.5245 3.0906 17.8037 3.90164 15.3942 5.21394C14.6168 5.63682 13.8815 6.1023 13.1625 6.62617C13.0889 6.67929 13.0273 6.72084 13.0247 6.71874C13.0126 6.70506 12.8133 6.38527 12.768 6.30638C12.4756 5.79566 12.2889 5.41433 12.1069 4.95463C11.7466 4.04629 11.5325 3.09744 11.4652 2.11177C11.4468 1.83616 11.4458 1.78146 11.4431 0.953057C11.4421 0.492833 11.4405 0.115713 11.44 0.115713C11.4347 0.114661 7.14648 0.0683758 7.06864 0.0683758H6.9645L6.96713 0.868902ZM8.49349 2.3879C8.7975 2.39106 9.07416 2.39474 9.10888 2.39632L9.17252 2.39947L9.18146 2.5094C9.19356 2.65404 9.22301 2.91335 9.24615 3.08166C9.40815 4.25773 9.7332 5.36279 10.2371 6.45102C10.397 6.79606 10.6947 7.35043 10.883 7.65286C10.9308 7.72965 11.0876 7.97423 11.1365 8.04786C11.1996 8.14306 11.5888 8.68218 11.6604 8.77318C11.6977 8.82051 11.7335 8.87311 11.7456 8.89783C11.764 8.93412 11.775 8.94727 11.8208 8.98935C11.8613 9.02669 11.9723 9.15608 12.271 9.51374C12.6297 9.94346 12.6686 9.98817 12.6765 9.98133C12.7759 9.89612 13.7721 9.06982 13.8742 8.9883C15.34 7.81801 16.9022 6.92176 18.621 6.26535C18.9335 6.14596 19.3937 5.98764 19.7151 5.88928C22.1419 5.14346 24.6655 4.9215 27.1733 5.2334C27.3963 5.26128 27.7545 5.31282 27.7592 5.31808C27.7613 5.32018 27.4799 6.5641 27.4768 6.56726C27.4757 6.56831 27.4252 6.562 27.3648 6.55358C26.9335 6.49257 26.4953 6.44892 26.0451 6.42209C25.6843 6.40105 25.5817 6.39842 25.0694 6.39842C24.5729 6.39842 24.4667 6.40105 24.1279 6.41946C21.6848 6.55569 19.3411 7.2263 17.1757 8.40868C15.5846 9.27705 14.0998 10.4473 12.8685 11.8049L12.8359 11.8406L12.7765 11.7922C12.7439 11.7659 12.6771 11.7118 12.6276 11.6723C12.5787 11.6329 12.504 11.5708 12.4619 11.5345C12.4199 11.4982 12.3504 11.4377 12.3068 11.4004C12.2216 11.3273 12.2247 11.3299 12.0412 11.1616C11.7971 10.9375 11.4053 10.5446 11.2417 10.359C11.2085 10.3211 11.1444 10.2501 11.0991 10.2012C11.0187 10.1133 10.5248 9.51216 10.4191 9.37278C10.367 9.30441 9.94254 8.69112 9.81104 8.49441C9.77633 8.44181 9.72321 8.35871 9.69323 8.30874C9.66325 8.25878 9.61854 8.18514 9.59435 8.14464C9.46022 7.92268 9.2835 7.60026 9.13833 7.31098C8.55608 6.15332 8.15108 4.93517 7.92018 3.6476C7.85496 3.2831 7.79816 2.86233 7.76765 2.5194C7.76344 2.4689 7.75818 2.41736 7.75661 2.40473L7.75398 2.38264H7.8476C7.89915 2.38264 8.19001 2.38475 8.49349 2.3879Z" fill="white"/>
<path d="M24.7644 8.69796C22.8772 8.73794 21.0589 9.14188 19.3495 9.90138C17.9515 10.522 16.6828 11.3483 15.5494 12.3755C15.2091 12.6843 14.832 13.0635 14.5258 13.4043C14.3549 13.5942 14.1009 13.8935 14.104 13.9003C14.1408 13.9713 14.3218 14.3406 14.3602 14.4242C14.7031 15.16 14.9861 15.9153 15.2101 16.6943C15.7577 18.5957 15.9444 20.5375 15.7677 22.4931C15.5709 24.6675 14.9187 26.7945 13.8657 28.6943C13.8258 28.7663 13.6654 29.0504 13.5097 29.3254C13.3535 29.6 13.2277 29.8267 13.2293 29.8288C13.2335 29.8341 17.0284 32 17.0321 32C17.0352 31.9995 17.5638 31.0753 17.6995 30.8329C18.7083 29.0304 19.4363 27.0548 19.8439 25.0125C20.169 23.3867 20.2915 21.7478 20.2121 20.0894C20.1306 18.39 19.8329 16.7101 19.3237 15.079L19.3164 15.0554L19.3937 15.0001C20.0764 14.5136 20.8611 14.1028 21.669 13.8093C22.6084 13.4685 23.5783 13.2802 24.6118 13.2381C24.7812 13.2313 25.3045 13.2345 25.4534 13.2434C25.8868 13.2697 26.2013 13.3044 26.5816 13.368C26.8083 13.4064 26.9703 13.4401 27.6125 13.5853C27.9449 13.6605 28.2189 13.7204 28.2205 13.7183C28.2252 13.7131 29.2304 9.27706 29.2272 9.2739C29.2225 9.26917 28.0338 9.00829 27.8308 8.96779C26.8346 8.76739 25.7932 8.67587 24.7644 8.69796ZM25.6743 9.45115C26.0777 9.47272 26.326 9.49323 26.6568 9.53163L26.8009 9.54846L26.7988 9.56161C26.7936 9.59264 26.4717 11.0117 26.469 11.0143C26.4675 11.0164 26.4059 11.0112 26.3323 11.0028C24.4293 10.7876 22.53 11.0206 20.7486 11.6886C19.5341 12.1441 18.3686 12.8184 17.3792 13.6389C17.1872 13.7988 16.6118 14.2927 16.6118 14.2985C16.6118 14.3016 16.6855 14.5099 16.7754 14.7613C16.8654 15.0133 16.9716 15.3173 17.0116 15.4372C17.5181 16.952 17.8179 18.5231 17.9031 20.1078C17.922 20.4634 17.9241 20.5638 17.9241 21.0625C17.9241 21.5611 17.922 21.6615 17.9031 22.0171C17.7853 24.2172 17.2493 26.4116 16.342 28.4076C16.2284 28.6575 16.1437 28.8347 16.1379 28.8326C16.1364 28.8316 15.8734 28.6822 15.5536 28.4997L14.9724 28.1688L14.9955 28.1183C15.6525 26.7172 16.0974 25.2944 16.3488 23.7896C16.6034 22.2648 16.6423 20.7101 16.464 19.1742C16.2621 17.4327 15.7861 15.7354 15.055 14.1528L14.9855 14.0018L15.0718 13.9056C15.9959 12.8784 17.0352 12.021 18.2003 11.3257C19.5094 10.5446 20.9311 9.99816 22.4343 9.69888C23.1481 9.55635 23.8287 9.47745 24.6013 9.44642C24.7486 9.44063 25.5412 9.44431 25.6743 9.45115Z" fill="white"/>
</svg>
