<svg width="100" height="40" viewBox="0 0 308 85" fill="none" xmlns="http://www.w3.org/2000/svg">
  <path fill-rule="evenodd" clip-rule="evenodd" d="M11.8711 31.9009V42.1085H19.963V31.9009H11.8711ZM20.0161 31.8969H38.1403V24.2155H20.0161V31.8969ZM297.846 36.9396H287.643L277.675 47.6701V23.3359H269.877V65.7889H277.675V58.1661L280.9 54.7652L288.523 65.7889H298.081L286.295 49.0774L297.846 36.9396ZM20.0216 65.7889V49.6052H36.1467V42.1583H20.0162V49.6432H11.8711V65.7889H20.0216ZM58.6247 36.8224C58.0383 36.7637 57.4519 36.7051 56.8069 36.7051C54.3442 36.7051 50.3569 37.4087 48.5978 41.2201V36.9396H41.0337V65.7889H48.8323V52.5956C48.8323 46.3801 52.2919 44.4451 56.2792 44.4451C56.9828 44.4451 57.7451 44.5038 58.6247 44.6797V36.8224ZM71.2599 66.6098C65.1031 66.6098 61.3504 62.4466 61.3504 57.9316C61.3504 52.7715 65.1617 49.8983 69.9699 49.1947L77.065 48.1392C78.7068 47.9047 79.2345 47.0838 79.2345 46.087C79.2345 44.0347 77.6513 42.3342 74.3677 42.3342C70.9668 42.3342 69.0904 44.5038 68.8558 47.0251L61.9367 45.5592C62.4058 41.0442 66.569 36.0601 74.3091 36.0601C83.4564 36.0601 86.8573 41.2201 86.8573 47.0251V61.2152C86.8573 62.7398 87.0332 64.792 87.2091 65.7889H80.0554C79.8795 65.0266 79.7623 63.4434 79.7623 62.3293C78.2963 64.6161 75.5404 66.6098 71.2599 66.6098ZM69.149 57.4625C69.149 59.1629 70.3804 60.8048 72.9018 60.8048C76.1854 60.8048 79.2345 59.2216 79.2345 54.1202V52.8302L72.7259 53.827C70.7322 54.1202 69.149 55.2343 69.149 57.4625ZM99.3442 65.7889V48.9015C99.3442 45.7351 101.338 43.2138 104.739 43.2138C108.257 43.2138 109.84 45.5592 109.84 48.667V65.7889H117.58V48.9015C117.58 45.7938 119.574 43.2138 122.916 43.2138C126.493 43.2138 128.017 45.5592 128.017 48.667V65.7889H135.582V47.0838C135.582 39.3437 130.48 36.1187 125.144 36.1187C121.333 36.1187 118.284 37.4087 115.997 40.9269C114.531 37.8192 111.365 36.1187 107.436 36.1187C104.27 36.1187 100.575 37.6433 98.9924 40.4578V36.9396H91.5455V65.7889H99.3442ZM182.175 55.4688L188.449 36.9396H196.658L202.874 55.5275L208.209 36.9396H215.95L206.919 65.7889H199.121L192.378 46.087L185.752 65.7889H177.836L168.63 36.9396H176.839L182.175 55.4688ZM230.861 59.5734C227.05 59.5734 223.532 56.7588 223.532 51.3643C223.532 45.911 227.05 43.1551 230.861 43.1551C234.673 43.1551 238.191 45.911 238.191 51.3643C238.191 56.8175 234.673 59.5734 230.861 59.5734ZM230.861 36.0601C222.242 36.0601 215.733 42.4515 215.733 51.3643C215.733 60.2184 222.242 66.6684 230.861 66.6684C239.481 66.6684 245.989 60.2184 245.989 51.3643C245.989 42.4515 239.481 36.0601 230.861 36.0601ZM264.746 36.7051C265.391 36.7051 265.977 36.7637 266.564 36.8224V44.6797C265.684 44.5038 264.922 44.4451 264.218 44.4451C260.231 44.4451 256.771 46.3801 256.771 52.5956V65.7889H248.973V36.9396H256.537V41.2201C258.296 37.4087 262.283 36.7051 264.746 36.7051Z" fill="#18181B"></path>
  <path d="M146.997 48.0801C147.173 45.4414 149.401 42.3923 153.447 42.3923C157.904 42.3923 159.78 45.2069 159.897 48.0801H146.997ZM160.66 55.5856C159.722 58.1656 157.728 59.9833 154.092 59.9833C150.222 59.9833 146.997 57.2274 146.821 53.416H167.462C167.462 53.2987 167.579 52.126 167.579 51.0119C167.579 41.7473 162.243 36.0596 153.33 36.0596C145.942 36.0596 139.14 42.0405 139.14 51.2465C139.14 60.9801 146.118 66.6679 154.034 66.6679C161.129 66.6679 165.702 62.5047 167.168 57.5206L160.66 55.5856Z" fill="#18181B"></path>
</svg>