<svg width="601" height="148" viewBox="0 0 601 148" fill="none" xmlns="http://www.w3.org/2000/svg">
<path d="M44.1998 1.7L127.1 49.6V98.4L0.299805 25.2L40.9998 1.7C41.9998 1.1 43.1998 1.1 44.1998 1.7Z" fill="#3CA9E5"/>
<path d="M127.099 0.700012L84.8994 25.1L127.099 49.5V0.700012Z" fill="#2853C3"/>
<path d="M127.1 0.700012L167.8 24.2C168.8 24.8 169.4 25.9 169.4 27V122.7L127.1 98.3V0.700012V0.700012Z" fill="#1A4199"/>
<path d="M169.4 122.8L128.7 146.3C127.7 146.9 126.5 146.9 125.4 146.3L42.5 98.4V49.5L169.4 122.8Z" fill="#2853C3"/>
<path d="M0.299805 25.2V120.9C0.299805 122.1 0.899805 123.2 1.89981 123.7L42.5998 147.2V49.5L0.299805 25.2Z" fill="#60BEFF"/>
<path d="M42.5996 147.2L84.7996 122.8L42.5996 98.4V147.2Z" fill="#3CA9E5"/>
<path d="M413.999 74.1C412.099 51.9 393.699 34.8 371.399 34.6H369.399C364.299 34.8 359.199 35.9 354.499 38L353.499 38.4H352.999C337.699 45.5 327.999 60.9 328.199 77.7V78.5C329.399 102.1 348.799 120.8 372.399 121H396.899C398.199 121 399.299 119.9 399.299 118.6V105C399.299 103.7 398.199 102.6 396.899 102.6H371.299C360.699 102.2 351.499 95.2 348.199 85H410.999C412.599 85 413.999 83.6 413.899 81.9V74.2C413.899 74 413.899 73.9 413.899 73.7L413.999 74.1ZM393.599 69.4H348.399C350.599 63.3 355.099 58.2 360.899 55.4L361.799 54.9C374.099 50 388.199 56 393.099 68.3C393.299 68.7 393.399 69.1 393.499 69.5L393.599 69.4ZM273.899 34.7C265.799 35 257.899 37.7 251.299 42.4V37.5C251.299 36.7 250.599 36 249.799 36H233.899C233.099 36 232.399 36.7 232.399 37.5V119.3C232.399 120.6 233.499 121.7 234.799 121.7H248.799C250.099 121.7 251.199 120.6 251.199 119.3V77.8C251.199 64.4 262.099 53.5 275.599 53.5C276.399 53.5 277.099 53.5 277.899 53.6C290.499 55.1 299.999 65.8 299.899 78.6V119.3C299.899 120.6 300.999 121.7 302.299 121.7H316.499C317.799 121.7 318.899 120.6 318.899 119.3V77.9C318.799 54 299.499 34.8 275.599 34.8C274.899 34.6 274.399 34.6 273.899 34.7ZM496.399 35.1C495.999 34.7 495.199 34.7 494.799 35.1L464.799 65.2L435.199 35.6C434.799 35.2 433.999 35.2 433.599 35.6L421.499 47.7C421.099 48.1 421.099 48.9 421.499 49.3L451.099 78.9L420.799 108.9C420.399 109.3 420.399 110.1 420.799 110.5L432.599 122.3C433.199 122.9 434.099 122.9 434.699 122.3L464.499 92.5L494.099 122.1C494.499 122.5 495.299 122.5 495.699 122.1L507.799 110C508.199 109.6 508.199 108.8 507.799 108.4L478.199 78.8L508.199 48.8C508.599 48.4 508.599 47.6 508.199 47.2C508.199 47.1 496.399 35.1 496.399 35.1ZM556.399 34.3C531.999 34.2 512.099 53.8 511.899 78.2C511.799 102.6 531.399 122.5 555.799 122.7C580.199 122.8 600.099 103.2 600.299 78.8C600.299 78.7 600.299 78.6 600.299 78.5C600.299 54.2 580.699 34.5 556.399 34.3ZM556.399 104.1C542.199 104.2 530.599 92.9 530.499 78.7C530.399 64.5 541.699 52.9 555.899 52.8C570.099 52.7 581.699 64 581.799 78.2C581.899 92.4 570.499 103.9 556.399 104.1Z" fill="#2853C3"/>
</svg>
