<?xml version="1.0" standalone="no"?>
<!DOCTYPE svg PUBLIC "-//W3C//DTD SVG 20010904//EN"
 "http://www.w3.org/TR/2001/REC-SVG-20010904/DTD/svg10.dtd">
<svg version="1.0" xmlns="http://www.w3.org/2000/svg"
 width="700.000000pt" height="700.000000pt" viewBox="0 0 700.000000 700.000000"
 preserveAspectRatio="xMidYMid meet">
<metadata>
Created by potrace 1.14, written by Peter Selinger 2001-2017
</metadata>
<g transform="translate(0.000000,700.000000) scale(0.100000,-0.100000)"
fill="#000000" stroke="none">
<path d="M223 6672 c3 -180 9 -349 12 -377 7 -59 34 -265 41 -315 3 -19 12
-66 19 -105 8 -38 17 -85 20 -104 3 -19 8 -37 10 -41 2 -4 7 -22 10 -41 21
-125 130 -465 214 -670 28 -69 51 -131 51 -136 0 -13 102 -208 209 -396 108
-192 335 -509 480 -672 148 -164 259 -277 392 -395 128 -115 141 -126 236
-199 76 -59 83 -68 107 -131 22 -59 51 -159 61 -210 2 -8 10 -49 19 -90 14
-68 33 -213 34 -265 3 -75 1 -277 -3 -310 -37 -351 -119 -602 -308 -937 -43
-75 -77 -139 -77 -144 0 -5 35 -28 78 -52 42 -23 97 -54 122 -68 60 -35 299
-171 489 -278 84 -48 157 -84 161 -79 18 19 163 280 208 375 113 235 214 528
247 718 3 19 10 53 15 75 5 22 11 60 15 85 3 25 8 56 10 70 28 193 34 580 11
735 -3 17 -10 68 -16 115 -33 251 -126 578 -227 800 -83 185 -83 184 -131 215
-248 158 -551 430 -742 664 -19 24 -43 53 -53 65 -10 11 -27 32 -38 46 -258
343 -425 662 -552 1055 -33 102 -79 279 -92 350 -35 195 -45 259 -50 310 -3
33 -8 80 -11 105 -3 25 -6 157 -8 293 -2 137 -6 250 -8 252 -2 2 -219 6 -482
9 l-479 6 6 -328z m802 -191 c1 -3 6 -37 9 -76 8 -84 16 -151 22 -185 2 -14 7
-43 10 -65 24 -179 108 -497 186 -704 43 -116 155 -367 182 -410 5 -8 23 -40
39 -70 100 -189 296 -465 457 -646 85 -95 275 -280 365 -355 50 -41 92 -77 95
-80 10 -11 203 -151 231 -167 19 -12 41 -45 72 -113 45 -96 129 -319 142 -375
4 -17 13 -48 20 -70 30 -93 79 -358 92 -500 15 -160 7 -560 -12 -650 -3 -11
-7 -38 -9 -60 -3 -22 -7 -51 -10 -65 -3 -13 -8 -42 -12 -64 -6 -43 -61 -263
-76 -306 -67 -189 -91 -254 -110 -297 l-23 -52 -137 77 -136 78 18 44 c100
241 169 516 196 782 14 132 6 549 -10 577 -2 3 -6 29 -10 56 -29 239 -172 686
-230 717 -11 6 -23 14 -26 17 -3 3 -32 26 -65 50 -207 153 -503 431 -661 621
-330 397 -555 802 -714 1281 -58 173 -126 453 -145 589 -3 25 -10 70 -15 100
-9 58 -15 110 -26 248 l-6 83 147 -2 c80 -2 148 -5 150 -8z"/>
<path d="M1527 6976 c-11 -31 3 -500 18 -616 13 -99 20 -139 41 -250 97 -499
332 -990 662 -1382 122 -144 340 -358 442 -433 15 -11 53 -40 85 -63 l57 -44
36 44 c108 127 281 297 452 442 95 81 312 228 460 313 90 51 333 173 346 173
2 0 23 9 47 19 136 61 441 155 602 187 11 2 31 6 45 9 92 20 240 39 405 54 96
8 497 6 580 -3 106 -12 227 -30 285 -41 14 -3 34 -7 45 -9 20 -4 212 -44 250
-53 73 -16 83 -15 89 3 8 28 194 856 200 888 2 14 -89 37 -359 90 -191 39
-288 52 -520 73 -176 15 -634 9 -800 -12 -16 -2 -55 -7 -85 -10 -57 -6 -98
-12 -140 -20 -14 -3 -41 -7 -60 -10 -19 -3 -69 -13 -110 -21 -41 -9 -85 -18
-98 -20 -73 -14 -306 -79 -427 -119 -366 -122 -710 -289 -1034 -503 -64 -42
-118 -79 -121 -82 -3 -3 -19 -15 -37 -27 -37 -26 -33 -30 -100 87 -76 133
-180 375 -198 460 -2 8 -8 35 -15 60 -12 44 -15 58 -25 110 -3 14 -7 36 -10
50 -5 25 -10 60 -21 140 -3 25 -7 151 -9 279 l-3 235 -229 3 c-705 9 -742 9
-746 -1z m472 -506 c5 -3 11 -34 15 -70 46 -445 214 -875 492 -1257 85 -116
248 -315 264 -321 4 -2 63 44 131 101 443 370 832 593 1319 757 124 42 333
101 404 114 11 2 59 11 106 21 47 9 101 18 120 21 19 2 46 6 60 9 14 3 48 8
75 11 28 3 64 7 80 9 203 24 622 23 805 -2 25 -3 54 -7 65 -8 56 -5 135 -18
135 -21 0 -2 -9 -46 -21 -97 -11 -50 -23 -103 -25 -117 -9 -46 -15 -59 -27
-55 -12 4 -54 9 -202 23 -163 15 -657 7 -750 -13 -11 -2 -41 -7 -67 -10 -377
-45 -849 -201 -1221 -406 -306 -168 -592 -384 -841 -637 l-110 -110 -70 58
c-123 102 -344 328 -393 401 -9 13 -21 29 -28 34 -18 15 -153 210 -207 300
-60 98 -155 286 -193 380 -15 39 -33 84 -40 100 -19 44 -90 272 -101 320 -1 6
-11 53 -22 105 -12 52 -24 118 -28 145 -3 28 -7 52 -9 55 -2 3 -6 42 -10 87
l-7 83 147 -2 c80 -1 150 -5 154 -8z"/>
<path d="M5288 5094 c-2 -1 -37 -5 -78 -8 -118 -10 -174 -18 -405 -62 -65 -12
-290 -79 -382 -114 -155 -58 -151 -57 -338 -150 -224 -112 -455 -266 -630
-419 -66 -57 -308 -303 -339 -343 l-28 -38 55 -122 c96 -209 161 -395 212
-603 54 -219 55 -223 75 -375 6 -47 13 -96 15 -110 15 -99 22 -455 10 -595
-14 -170 -30 -290 -62 -445 -31 -156 -26 -136 -62 -260 -86 -300 -179 -516
-378 -870 l-59 -105 415 -237 c370 -211 416 -235 426 -220 7 9 23 37 37 62 14
25 54 95 88 155 34 61 89 166 122 235 33 69 64 133 69 142 5 10 27 64 49 120
23 57 45 112 51 123 5 11 11 29 14 40 2 11 15 52 29 90 27 76 75 231 81 266 3
12 9 36 14 53 9 29 55 239 65 296 2 14 7 41 10 60 14 84 30 194 40 288 26 228
26 664 1 872 -2 19 -6 58 -9 85 -7 71 -35 249 -46 298 -5 23 -12 58 -15 77
-10 59 -65 282 -86 344 -10 33 -19 65 -19 73 0 19 162 123 293 187 157 77 380
155 517 179 34 7 89 16 125 22 61 10 213 19 310 19 175 -1 331 -22 580 -78 60
-14 113 -22 116 -18 6 6 38 140 53 217 2 11 25 111 51 222 25 111 48 210 50
220 2 10 13 61 25 113 49 215 63 187 -115 226 -172 38 -294 60 -380 69 -33 3
-73 9 -90 12 -29 6 -472 13 -477 7z m418 -169 c132 -9 143 -10 150 -17 3 -4
-1 -35 -10 -70 -8 -35 -17 -74 -20 -88 -6 -35 -26 -122 -32 -143 -5 -15 -13
-16 -72 -10 -86 10 -459 10 -537 0 -98 -13 -127 -17 -181 -28 -28 -5 -64 -12
-80 -15 -195 -35 -476 -136 -684 -247 -164 -87 -393 -244 -495 -340 -16 -15
-48 -42 -71 -60 l-41 -31 53 -153 c100 -286 176 -593 199 -803 1 -14 6 -47 9
-75 19 -145 23 -255 21 -505 -2 -151 -5 -286 -8 -300 -3 -14 -8 -52 -11 -85
-9 -89 -20 -168 -32 -230 -2 -11 -6 -32 -9 -48 -56 -301 -153 -606 -295 -925
-13 -28 -28 -52 -33 -52 -8 0 -232 124 -246 136 -1 1 20 58 49 125 51 120 63
151 113 299 41 124 68 219 93 334 17 76 54 281 59 331 4 33 8 71 10 85 22 143
22 650 0 768 -1 9 -6 42 -10 72 -39 315 -137 672 -261 959 -37 87 -51 128 -44
140 18 34 285 287 365 346 22 17 42 32 45 35 7 7 134 98 185 132 297 196 670
347 1040 418 83 17 88 17 145 25 30 4 64 9 75 11 11 2 67 7 125 10 58 3 106 7
107 8 4 3 243 -2 329 -9z"/>
</g>
</svg>
